<?xml version="1.0" standalone="no"?>
<!DOCTYPE svg PUBLIC "-//W3C//DTD SVG 20010904//EN"
 "http://www.w3.org/TR/2001/REC-SVG-20010904/DTD/svg10.dtd">
<svg version="1.0" xmlns="http://www.w3.org/2000/svg"
 width="100.000000pt" height="100.000000pt" viewBox="0 0 100.000000 100.000000"
 preserveAspectRatio="xMidYMid meet">
<metadata>
Created by potrace 1.11, written by Peter Selinger 2001-2013
</metadata>
<g transform="translate(0.000000,100.000000) scale(0.100000,-0.100000)"
fill="#000000" stroke="none">
<path d="M383 986 c-219 -53 -383 -261 -383 -486 0 -270 230 -500 500 -500
270 0 500 230 500 500 0 274 -233 503 -508 499 -31 0 -80 -6 -109 -13z m251
-240 c65 -27 72 -115 14 -181 -32 -37 -67 -45 -88 -20 -10 13 -6 23 29 60 29
32 41 53 41 75 0 27 -3 30 -30 30 -42 0 -114 -68 -152 -145 -40 -77 -51 -189
-23 -231 14 -22 22 -25 51 -21 19 3 47 15 63 26 38 27 51 26 51 -4 0 -50 -133
-85 -200 -52 -14 7 -33 28 -42 47 -62 123 53 363 198 415 49 18 48 18 88 1z"/>
</g>
</svg>
