<?xml version="1.0"?>
<svg xmlns="http://www.w3.org/2000/svg" width="512" height="512" viewBox="0 0 512 512"><g id="Solid"><g><path d="M392,304a8.0092,8.0092,0,0,0-8,8l.0024.1973a8,8,0,0,1-9.5947,8.0429,11.9792,11.9792,0,1,0,9.3516,9.35,8.0012,8.0012,0,0,1,1.7-6.7246,8.0983,8.0983,0,0,1,6.3149-2.8681L392,320a8,8,0,0,0,0-16Z"/><path d="M256,319.7842a40,40,0,1,0,40,40A40.0455,40.0455,0,0,0,256,319.7842Zm-8,48H232v-16h16Zm24,16H256v-16h16Zm0-32H256v-16h16Z"/><path d="M369.61,220.0938a40.0183,40.0183,0,0,0-33.2388-62.1426,40.3569,40.3569,0,0,0-7.9956.8037A40,40,0,1,0,369.61,220.0938Zm-46.5987-2.1377-13.3281-8.8516,8.8516-13.3281,13.3281,8.8515Zm4.3755-35.5079,8.8516-13.3281,13.3286,8.8516L340.7158,191.3Zm24.4688,35.458-13.3287-8.8525,8.8526-13.3281,13.3286,8.8525Z"/><path d="M190.207,244.6133a40,40,0,0,0-14.2168-72.53,40.3489,40.3489,0,0,0-7.9951-.8037,40.0056,40.0056,0,1,0,22.2119,73.334Zm4.4766-22.1807-13.3286,8.8526-8.8526-13.3282,13.3287-8.8525Zm-26.5562-39.9844,8.8516,13.3282-13.3281,8.8515L154.7993,191.3Zm-11.14,26.6065,8.8516,13.3281L152.51,231.2344l-8.8516-13.3282Z"/><path d="M234.1816,121.8691l.2037.0381a8,8,0,0,1,5.9648,11,11.98,11.98,0,1,0,11.0186-7.3037,8,8,0,0,1-7.8038-9.7607l.0489-.2285a8.0092,8.0092,0,0,0-6.25-9.4258,8.1025,8.1025,0,0,0-1.6075-.1621,8.0015,8.0015,0,0,0-1.5747,15.8427Z"/><path d="M160,336l-.2256.0029a7.9993,7.9993,0,0,1-8.0151-9.5927,11.9786,11.9786,0,1,0-9.3462,9.3486,7.9992,7.9992,0,0,1,9.59,8.0146L152,344a8,8,0,1,0,8-8Z"/><path d="M256,64C150.1309,64,64,150.1309,64,256s86.1309,192,192,192,192-86.1309,192-192S361.8691,64,256,64Zm32,24h16v16H288Zm-75.748,21.2559a24.0011,24.0011,0,0,1,47.3071,1.5664A28.0008,28.0008,0,1,1,223.5474,134.68,24.0388,24.0388,0,0,1,212.252,109.2559ZM264,264v16H248V264ZM95.7173,207.8164l16.5342-1.0373a57.0942,57.0942,0,0,1,2.62-12.9776l-14.8388-7.37,7.1172-14.33,14.8172,7.3591a56.4289,56.4289,0,0,1,34.6534-23.0144l-1.036-16.5117,15.9687-1.002,1.0374,16.5344a56.9753,56.9753,0,0,1,12.9775,2.6192l7.3689-14.8382,14.33,7.1172-7.3583,14.8169a56.222,56.222,0,0,1,22.9855,34.6555l16.54-1.0378,1.0019,15.9688-16.5646,1.0393a56.4907,56.4907,0,0,1-2.6161,12.9624l14.8648,7.382-7.1162,14.33-14.8435-7.3716a56.015,56.015,0,0,1-34.6291,22.9983l1.0375,16.5413-15.9687,1.0019-1.0391-16.5654a56.4819,56.4819,0,0,1-12.962-2.616l-7.3827,14.866-14.33-7.1172,7.3718-14.8442a56.2194,56.2194,0,0,1-23.028-34.6265l-16.5113,1.0362ZM160,368a24.0435,24.0435,0,0,1-22.6738-16.127,28.0005,28.0005,0,1,1,30.5473-30.5468A24.0012,24.0012,0,0,1,160,368Zm152-8.2158a55.71,55.71,0,0,1-3.999,20.7856l14.353,8.2866-8,13.8555L299.98,394.4133a56.49,56.49,0,0,1-9.3509,9.3511l8.2987,14.3743-13.8564,8-8.2867-14.3533a56.0182,56.0182,0,0,1-41.57,0l-8.2867,14.3533-13.8564-8,8.2987-14.3743a56.49,56.49,0,0,1-9.3509-9.3511l-14.3736,8.2986-8-13.8555,14.353-8.2866a56.0184,56.0184,0,0,1,0-41.5713l-14.353-8.2866,8-13.8555L212.02,325.155a56.4984,56.4984,0,0,1,9.3506-9.3508l-8.2984-14.3735,13.8564-8,8.2863,14.3525a56.0176,56.0176,0,0,1,41.571,0l8.2863-14.3525,13.8564,8L290.63,315.8042a56.4984,56.4984,0,0,1,9.3506,9.3508l14.3736-8.2986,8,13.8555-14.353,8.2866A55.71,55.71,0,0,1,312,359.7842Zm27.7661-89.461-15.9687-1.0019,1.0357-16.5112a56.2166,56.2166,0,0,1-34.6271-23.0274l-14.8437,7.3716-7.1162-14.33,14.865-7.3823a56.4881,56.4881,0,0,1-2.6162-12.9622L263.93,201.44l1.0019-15.9687,16.5407,1.0378a56.2235,56.2235,0,0,1,22.9854-34.6555l-7.3586-14.8169,14.33-7.1172,7.3692,14.8382a56.9959,56.9959,0,0,1,12.9775-2.6194l1.0371-16.5342,15.9687,1.0019-1.0356,16.5113A56.4281,56.4281,0,0,1,382.4,166.1323l14.8168-7.3589,7.1172,14.33-14.8384,7.37a57.093,57.093,0,0,1,2.62,12.9776l16.5337,1.0366-1.001,15.9688-16.5117-1.0354a56.4308,56.4308,0,0,1-23.0148,34.653l7.3586,14.8169-14.33,7.1172L353.7807,251.17a57.0471,57.0471,0,0,1-12.9775,2.62Zm60.1074,64.3506a28.0007,28.0007,0,1,1-30.5473-30.5468,24.0011,24.0011,0,1,1,30.5473,30.5468ZM400,264V248h16v16Z"/><path d="M414.3921,97.6084A224,224,0,1,0,97.6079,414.3916,224,224,0,1,0,414.3921,97.6084ZM256,464C141.3086,464,48,370.6914,48,256S141.3086,48,256,48s208,93.3086,208,208S370.6914,464,256,464Z"/></g></g></svg>
